#!OML:ASF G:\JayActor3\Patient Classification 1\Patient 1\Session 5\male.ASF
:FULLY-SPECIFIED
:DEGREES
256
root -10.8282 16.5164 -5.51875 311.612 88.8502 313.253
lowerback 0.730207 -1.71916 -0.207439
upperback 2.20699 -2.27045 -0.201775
thorax 1.85145 -1.12829 -0.110772
lowerneck -9.72373 0.542034 3.17579
upperneck 11.2599 0.288581 0.061813
head 4.98604 0.297478 -0.476269
rclavicle -3.4601e-014 1.98785e-016
rhumerus -36.7076 -13.2925 -81.6379
rradius 22.9241
rwrist 9.04656
rhand -17.2576 -6.221
rfingers 7.12502
rthumb 8.98675 -36.0096
lclavicle -3.4601e-014 1.98785e-016
lhumerus -22.9791 0.715945 87.2089
lradius 28.3164
lwrist 12.7668
lhand -18.1972 14.5193
lfingers 7.12502
lthumb 8.08006 44.3448
rfemur -30.7445 7.15489 21.6105
rtibia 29.684
rfoot -17.7449 -17.4027
rtoes -5.31183
lfemur 31.8138 9.7335 -18.135
ltibia -4.45278e-014
lfoot -5.77159 -1.29447
ltoes -21.9769
257
root -10.6272 16.5273 -5.49808 306.54 88.8962 308.334
lowerback 0.672784 -1.71423 -0.123691
upperback 2.22462 -2.26403 -0.203841
thorax 1.89843 -1.12354 -0.161839
lowerneck -9.72674 0.498894 3.05097
upperneck 11.3158 0.236232 0.163367
head 5.00271 0.27426 -0.428114
rclavicle 3.82164e-014 -1.98785e-015
rhumerus -36.9588 -13.4345 -81.5178
rradius 22.8089
rwrist 9.09378
rhand -17.2473 -6.22008
rfingers 7.12502
rthumb 8.99667 -36.0082
lclavicle 3.82164e-014 -1.98785e-015
lhumerus -23.3264 1.15728 87.1928
lradius 27.887
lwrist 12.5349
lhand -17.9708 14.4433
lfingers 7.12502
lthumb 8.29852 44.2603
rfemur -30.3292 6.92267 21.843
rtibia 30.4319
rfoot -17.2507 -17.5869
rtoes -4.92313
lfemur 32.5317 9.61472 -17.7796
ltibia 3.18055e-014
lfoot -4.1888 -1.4641
ltoes -22.4704
258
root -10.4263 16.5406 -5.47665 302.733 88.9295 304.69
lowerback 0.62832 -1.7038 -0.0609796
upperback 2.24197 -2.25015 -0.210619
thorax 1.93852 -1.11534 -0.205458
lowerneck -9.72214 0.461115 2.92282
upperneck 11.3764 0.191312 0.269731
head 5.01981 0.254956 -0.377392
rclavicle -1.40764e-014 0
rhumerus -37.19 -13.529 -81.4293
rradius 22.675
rwrist 9.16253
rhand -17.2765 -6.18071
rfingers 7.12502
rthumb 8.96858 -35.9701
lclavicle -1.40764e-014 0
lhumerus -23.6931 1.68979 87.1324
lradius 27.4454
lwrist 12.3252
lhand -17.7256 14.3611
lfingers 7.12502
lthumb 8.5352 44.1686
rfemur -29.9074 6.75343 22.0363
rtibia 31.1535
rfoot -16.7421 -17.5471
rtoes -4.55436
lfemur 33.2234 9.52377 -17.4441
ltibia 3.81667e-014
lfoot -2.40696 -1.50205
ltoes -22.8431
259
root -10.2263 16.555 -5.45438 301.479 88.9672 303.594
lowerback 0.576231 -1.6881 -0.0439377
upperback 2.26147 -2.22885 -0.227091
thorax 1.98653 -1.1041 -0.233694
lowerneck -9.72435 0.432695 2.80468
upperneck 11.4469 0.158162 0.36843
head 5.04139 0.241477 -0.329816
rclavicle -6.31141e-015 3.18055e-015
rhumerus -37.3794 -13.5814 -81.3758
rradius 22.5066
rwrist 9.30189
rhand -17.3462 -6.07647
rfingers 7.12502
rthumb 8.90125 -35.8687
lclavicle -6.31141e-015 3.18055e-015
lhumerus -24.071 2.33431 87.0149
lradius 26.9966
lwrist 12.1412
lhand -17.475 14.3065
lfingers 7.12502
lthumb 8.77702 44.104
rfemur -29.4841 6.64523 22.1818
rtibia 31.8518
rfoot -16.2386 -17.3345
rtoes -4.14189
lfemur 33.8715 9.47536 -17.1578
ltibia -2.22639e-014
lfoot -0.415234 -1.36033
ltoes -23.1138
260
root -10.028 16.57 -5.43086 303.278 89.0293 305.526
lowerback 0.502404 -1.66738 -0.0948582
upperback 2.27601 -2.20022 -0.256825
thorax 2.04377 -1.09032 -0.23804
lowerneck -9.73045 0.413272 2.70475
upperneck 11.5256 0.136059 0.452843
head 5.06638 0.233361 -0.28883
rclavicle -2.24813e-014 -3.97569e-016
rhumerus -37.5264 -13.6012 -81.3512
rradius 22.3187
rwrist 9.49486
rhand -17.3997 -5.95122
rfingers 7.12502
rthumb 8.8496 -35.7457
lclavicle -2.24813e-014 -3.97569e-016
lhumerus -24.4649 3.07983 86.8365
lradius 26.5523
lwrist 12.0004
lhand -17.2109 14.3059
lfingers 7.12502
lthumb 9.03183 44.0925
rfemur -29.0745 6.58216 22.2761
rtibia 32.5335
rfoot -15.7525 -17.0538
rtoes -3.61677
lfemur 34.449 9.46668 -16.9426
ltibia -6.36111e-014
lfoot 1.80312 -1.00847
ltoes -23.1265
261
root -9.83202 16.5857 -5.40576 308.484 89.1288 310.822
lowerback 0.390592 -1.64672 -0.231458
upperback 2.28339 -2.17064 -0.301168
thorax 2.11764 -1.0776 -0.210502
lowerneck -9.75317 0.403588 2.62286
upperneck 11.6165 0.125061 0.526646
head 5.09818 0.230936 -0.253236
rclavicle -2.74199e-014 -3.97569e-015
rhumerus -37.6234 -13.5887 -81.3583
rradius 22.1154
rwrist 9.75584
rhand -17.4404 -5.79128
rfingers 7.12502
rthumb 8.81036 -35.5874
lclavicle -2.74199e-014 -3.97569e-015
lhumerus -24.8699 3.91287 86.5956
lradius 26.1238
lwrist 11.9305
lhand -16.9492 14.3883
lfingers 7.12502
lthumb 9.28436 44.1639
rfemur -28.6936 6.54163 22.3156
rtibia 33.2018
rfoot -15.3117 -16.7852
rtoes -2.88459
lfemur 34.9308 9.48397 -16.8139
ltibia -3.18055e-014
lfoot 4.25863 -0.429152
ltoes -22.9292
262
root -9.63814 16.6026 -5.37926 317.697 89.262 320.077
lowerback 0.243497 -1.62981 -0.445306
upperback 2.27712 -2.14463 -0.359838
thorax 2.19957 -1.06814 -0.155318
lowerneck -9.78873 0.398499 2.5625
upperneck 11.7209 0.118514 0.585008
head 5.13644 0.23081 -0.225581
rclavicle 1.5381e-014 1.19271e-015
rhumerus -37.69 -13.5264 -81.4035
rradius 21.9349
rwrist 10.022
rhand -17.4381 -5.63618
rfingers 7.12502
rthumb 8.81262 -35.4322
lclavicle 1.5381e-014 1.19271e-015
lhumerus -25.2973 4.79859 86.2999
lradius 25.7248
lwrist 11.9706
lhand -16.7259 14.5678
lfingers 7.12502
lthumb 9.49984 44.3337
rfemur -28.3377 6.50263 22.3063
rtibia 33.8455
rfoot -14.9468 -16.5781
rtoes -1.93818
lfemur 35.3159 9.50563 -16.7658
ltibia -3.81667e-014
lfoot 6.94117 0.36571
ltoes -22.4776
263
root -9.44596 16.6205 -5.35192 331.605 89.4077 333.994
lowerback 0.0784979 -1.62331 -0.706612
upperback 2.26155 -2.13092 -0.425018
thorax 2.2835 -1.0658 -0.0808283
lowerneck -9.84409 0.396481 2.51843
upperneck 11.8445 0.114446 0.63129
head 5.18407 0.23211 -0.204093
rclavicle 1.09518e-014 9.93923e-016
rhumerus -37.7267 -13.4281 -81.4746
rradius 21.7914
rwrist 10.2584
rhand -17.3541 -5.52408
rfingers 7.12502
rthumb 8.89365 -35.3166
lclavicle 1.09518e-014 9.93923e-016
lhumerus -25.7448 5.72579 85.9558
lradius 25.3583
lwrist 12.1249
lhand -16.5351 14.8392
lfingers 7.12502
lthumb 9.68395 44.5966
rfemur -27.9738 6.45515 22.2729
rtibia 34.4419
rfoot -14.6819 -16.4497
rtoes -0.832926
lfemur 30.0771 9.73919 -16.5958
ltibia 10.2398
lfoot 5.4238 -0.25156
ltoes -21.7432
264
root -9.25511 16.639 -5.32477 347.547 89.5374 349.95
lowerback -0.0660015 -1.6286 -0.935665
upperback 2.24194 -2.13267 -0.483893
thorax 2.35092 -1.07071 -0.0174689
lowerneck -9.90377 0.392026 2.48386
upperneck 11.9815 0.106334 0.671239
head 5.23667 0.231688 -0.18638
rclavicle 9.47333e-015 -1.98785e-015
rhumerus -37.7601 -13.2742 -81.5793
rradius 21.7197
rwrist 10.4119
rhand -17.1868 -5.48084
rfingers 7.12502
rthumb 9.05507 -35.2665
lclavicle 9.47333e-015 -1.98785e-015
lhumerus -26.221 6.67255 85.5708
lradius 25.0295
lwrist 12.3894
lhand -16.4126 15.176
lfingers 7.12502
lthumb 9.80213 44.9278
rfemur -27.5412 6.39698 22.2801
rtibia 34.9583
rfoot -14.5265 -16.3844
rtoes 0.345421
lfemur 27.6237 10.0854 -16.2777
ltibia 15.3583
lfoot 6.38669 -0.356687
ltoes -20.7023
265
root -9.06528 16.6579 -5.29887 358.911 89.6725 361.369
lowerback -0.14816 -1.64764 -1.06143
upperback 2.22811 -2.15459 -0.52487
thorax 2.38626 -1.08379 0.00793196
lowerneck -9.96483 0.382204 2.45271
upperneck 12.1307 0.0907143 0.708972
head 5.29327 0.22785 -0.170437
rclavicle 1.39522e-014 6.75868e-015
rhumerus -37.7966 -13.0761 -81.7113
rradius 21.7242
rwrist 10.4717
rhand -16.9413 -5.50877
rfingers 7.12502
rthumb 9.29194 -35.284
lclavicle 1.39522e-014 6.75868e-015
lhumerus -26.7251 7.63347 85.1478
lradius 24.7364
lwrist 12.7186
lhand -16.3626 15.5387
lfingers 7.12502
lthumb 9.85031 45.2883
rfemur -26.9744 6.3251 22.3843
rtibia 35.3636
rfoot -14.4902 -16.3512
rtoes 1.53297
lfemur 25.6199 10.3587 -15.8638
ltibia 19.6999
lfoot 7.78825 -0.323545
ltoes -19.3717
266
root -8.87681 16.6768 -5.27486 344.679 89.8435 347.26
lowerback -0.140908 -1.67732 -1.03221
upperback 2.22595 -2.19444 -0.539807
thorax 2.3786 -1.10291 -0.0243136
lowerneck -10.0206 0.365826 2.41793
upperneck 12.2853 0.0662762 0.752295
head 5.35065 0.220094 -0.152806
rclavicle 3.23025e-014 -3.97569e-016
rhumerus -37.8394 -12.8599 -81.856
rradius 21.7924
rwrist 10.4767
rhand -16.6877 -5.53518
rfingers 7.12502
rthumb 9.53664 -35.2994
lclavicle 3.23025e-014 -3.97569e-016
lhumerus -27.252 8.58602 84.694
lradius 24.4755
lwrist 13.0821
lhand -16.3744 15.8772
lfingers 7.12502
lthumb 9.83891 45.6273
rfemur -26.2349 6.25068 22.6257
rtibia 35.632
rfoot -14.5678 -16.3344
rtoes 2.65029
lfemur 23.8508 10.5118 -15.3364
ltibia 23.6873
lfoot 9.37418 -0.196515
ltoes -17.682
